HIERARCHY
ROOT Hips
{
	OFFSET 0.00000 0.00000 0.00000
	CHANNELS 6 Xposition Yposition Zposition Zrotation Yrotation Xrotation 
	JOINT RightUpLegDummy
	{
		OFFSET 0 0 0
		CHANNELS 3 Zrotation Yrotation Xrotation
		JOINT RightUpLeg
		{
			OFFSET -3.52197 -3.41223 0.04002
			CHANNELS 3 Zrotation Yrotation Xrotation
			JOINT RightLeg
			{
				OFFSET -1.06336 -17.58347 1.60435
				CHANNELS 3 Zrotation Yrotation Xrotation
				JOINT RightFoot
				{
					OFFSET -0.27018 -17.05419 -1.63900
					CHANNELS 3 Zrotation Yrotation Xrotation
					JOINT RightToes
					{
						OFFSET 0.00298 -1.73825 3.34613
						CHANNELS 3 Zrotation Yrotation Xrotation
						End Site
						{
							OFFSET 0.00480 -0.05416 3.85043
						}
					}
				}
			}
		}
	}
	JOINT SpineDummy
	{
		OFFSET 0 0 0
		CHANNELS 3 Zrotation Yrotation Xrotation
		JOINT Spine
		{
			OFFSET 0.00000 4.14613 0.00000
			CHANNELS 3 Zrotation Yrotation Xrotation
			JOINT Spine1
			{
				OFFSET 0.00000 10.93369 0.05002
				CHANNELS 3 Zrotation Yrotation Xrotation
				JOINT HEadDummy
				{
					OFFSET 0 0 0
					CHANNELS 3 Zrotation Yrotation Xrotation
					JOINT Head
					{
						OFFSET 0.00000 5.52901 0.00438
						CHANNELS 3 Zrotation Yrotation Xrotation
						End Site
						{
							OFFSET -0.11417 7.29012 0.98962
						}
					}
				}
				JOINT LeftShoulder1Dummy
				{
					OFFSET 0 0 0
					CHANNELS 3 Zrotation Yrotation Xrotation
					JOINT LeftShoulder1
					{
						OFFSET 3.53937 -0.14262 -0.08662
						CHANNELS 3 Zrotation Yrotation Xrotation
						JOINT LeftArm
						{
							OFFSET 4.04833 -0.00133 0.12681
							CHANNELS 3 Zrotation Yrotation Xrotation
							JOINT LeftForeArm
							{
								OFFSET 9.67557 0.03289 -0.56117
								CHANNELS 3 Zrotation Yrotation Xrotation
								JOINT LeftHand
								{
									OFFSET 10.17679 0.06873 0.40307
									CHANNELS 3 Zrotation Yrotation Xrotation
									End Site
									{
										OFFSET 6.59293 -0.21483 0.59213
									}
								}
							}
						}
					}
				}
				JOINT RightShoulderDummy
				{
					OFFSET 0 0 0
					CHANNELS 3 Zrotation Yrotation Xrotation
					JOINT RightShoulder
					{
						OFFSET -3.53937 -0.14262 -0.08660
						CHANNELS 3 Zrotation Yrotation Xrotation
						JOINT RightArm
						{
							OFFSET -4.04833 -0.00132 0.12683
							CHANNELS 3 Zrotation Yrotation Xrotation
							JOINT RightForeArm
							{
								OFFSET -9.67570 0.03289 -0.56114
								CHANNELS 3 Zrotation Yrotation Xrotation
								JOINT RightHand
								{
									OFFSET -10.17679 0.06867 0.40304
									CHANNELS 3 Zrotation Yrotation Xrotation
									End Site
									{
										OFFSET -6.54841 -0.21495 0.59212
									}
								}
							}
						}
					}
				}
			}
		}
	}
	JOINT LeftUpLegDummy
	{
		OFFSET 0 0 0
		CHANNELS 3 Zrotation Yrotation Xrotation
		JOINT LeftUpLeg
		{
			OFFSET 3.52197 -3.41223 0.04002
			CHANNELS 3 Zrotation Yrotation Xrotation
			JOINT LeftLeg
			{
				OFFSET 1.08359 -17.35354 1.60336
				CHANNELS 3 Zrotation Yrotation Xrotation
				JOINT LeftFoot
				{
					OFFSET 0.24986 -17.28405 -1.63802
					CHANNELS 3 Zrotation Yrotation Xrotation
					JOINT LeftToes
					{
						OFFSET -0.01575 -1.73822 3.34610
						CHANNELS 3 Zrotation Yrotation Xrotation
						End Site
						{
							OFFSET 0.03150 -0.01868 3.85031
						}
					}
				}
			}
		}
	}
}
MOTION
Frames: 15
Frame Time: 0.033333
-44.0262 38.4915 2.3898 -174.9940 -44.6969 175.9100 0.0000 0.0000 0.0000 -6.4973 5.9704 -6.8570 -4.1472 -2.8710 28.0516 5.6686 0.8244 -20.9075 -0.0000 -0.0000 0.0000 0.0000 0.0000 0.0000 -3.9726 2.3647 -2.4034 10.6445 -0.9146 17.4712 0.0000 0.0000 0.0000 -3.2826 18.3993 -11.5164 0.0000 0.0000 0.0000 -17.3354 -2.2486 1.6899 0.7670 -44.5715 -51.4166 1.9318 -81.8430 12.9392 5.0546 -4.0996 -0.3526 0.0000 0.0000 0.0000 5.9183 3.7848 1.1404 38.8266 57.1978 -3.1933 178.6944 79.7950 -174.4331 -10.0963 6.0216 -0.8895 0.0000 0.0000 0.0000 13.3332 18.3965 -23.8486 -6.0562 -18.8080 19.8061 -2.3184 0.4565 6.7960 0.0000 0.0000 -0.0000
-44.6940 38.5619 2.0078 -169.5530 -57.0399 173.1930 0.0000 0.0000 0.0000 -3.5234 -0.2259 -3.9003 -5.7822 -5.5204 26.8482 6.7728 0.8561 -20.0778 -0.0000 -0.0000 0.0000 0.0000 0.0000 0.0000 -8.3044 2.0210 -3.0040 17.0255 -2.8375 14.3898 0.0000 0.0000 0.0000 -1.4289 14.5802 -15.1692 0.0000 0.0000 0.0000 -15.6699 -1.9011 1.5065 8.0027 -55.5672 -56.8795 1.8485 -79.8765 14.3662 5.7588 -3.6889 -0.3882 0.0000 0.0000 0.0000 4.9857 2.5674 0.9047 32.5035 45.9998 -15.8122 179.1277 68.9293 -172.8260 -9.2445 5.6123 -0.7785 0.0000 0.0000 0.0000 13.2121 10.9628 -28.9827 -7.9553 -22.7778 20.0252 -3.1132 0.5871 6.8902 0.0000 0.0000 -0.0000
-45.2758 38.6883 1.7058 -161.5430 -69.1579 167.7060 0.0000 0.0000 0.0000 -2.4194 -4.7516 -1.8922 -4.2457 -3.1683 26.1154 9.8123 0.9102 -18.2944 -0.0000 -0.0000 0.0000 0.0000 0.0000 0.0000 -5.1099 3.4117 -3.6478 13.3732 -0.2833 12.9978 0.0000 0.0000 0.0000 2.9149 6.6065 -21.0951 0.0000 0.0000 0.0000 -13.7118 -2.5844 1.5366 24.9812 -68.5432 -72.1172 2.2618 -79.5911 16.2369 6.3817 -3.8018 -0.4387 0.0000 0.0000 0.0000 3.0943 0.4227 0.5269 26.1902 42.5252 -29.9459 -178.5749 60.2214 -168.4030 -7.6166 3.2775 -0.5067 0.0000 0.0000 0.0000 12.2921 4.2566 -32.9680 -9.3865 -27.3827 18.2506 -3.3002 0.6978 8.7716 0.0000 0.0000 -0.0000
-45.7093 38.8096 1.6813 -151.9710 -76.8277 158.9720 0.0000 0.0000 0.0000 -3.3672 -3.6795 0.2934 -0.3519 3.2170 25.7603 11.8782 0.7802 -16.0427 -0.0000 -0.0000 0.0000 0.0000 0.0000 0.0000 5.0462 6.6208 -2.6121 1.8681 5.9582 12.8204 0.0000 0.0000 0.0000 7.2777 -3.5485 -24.6067 0.0000 0.0000 0.0000 -13.0767 -4.4696 1.8994 52.8604 -77.5862 -98.4572 2.5388 -80.4565 16.5440 6.8650 -4.5528 -0.5140 0.0000 0.0000 0.0000 0.5350 -0.8398 0.2842 10.7067 46.8642 -45.5295 -178.3391 72.5723 -159.9395 -6.3103 1.5765 -0.3203 0.0000 0.0000 0.0000 10.0505 1.8956 -34.4896 -10.7913 -31.9806 17.0025 -3.1834 0.7649 10.7641 0.0000 0.0000 -0.0000
-45.9807 38.9290 1.8905 -146.9700 -79.1824 152.9530 0.0000 0.0000 0.0000 -5.1767 1.9482 2.9447 3.7112 10.4537 24.9320 10.8177 0.4657 -13.5751 -0.0000 -0.0000 0.0000 0.0000 0.0000 0.0000 17.4927 9.7816 2.5762 -11.6394 13.1883 10.9001 0.0000 0.0000 0.0000 8.7103 -13.0747 -23.0141 0.0000 0.0000 0.0000 -12.3720 -5.8237 2.1172 83.1371 -82.4798 -128.7328 2.5385 -81.4323 15.3802 7.1773 -5.5477 -0.5938 0.0000 0.0000 0.0000 -2.2196 -0.8862 0.1929 -17.0277 51.1537 -65.0381 19.0812 74.2858 53.2029 -7.6155 4.2102 -0.5585 0.0000 0.0000 0.0000 7.2746 3.9329 -33.7551 -12.1658 -34.8110 17.5341 -2.8724 0.7310 11.3848 0.0000 0.0000 -0.0000
-46.2421 39.0528 2.1059 -147.7150 -79.1625 152.3460 0.0000 0.0000 0.0000 -6.9646 7.2174 5.0417 6.6200 16.6275 23.6009 8.3578 0.1778 -11.0028 -0.0000 -0.0000 0.0000 0.0000 0.0000 0.0000 27.3299 11.1944 9.3584 -23.1628 18.6014 7.4116 0.0000 0.0000 0.0000 8.1127 -19.9941 -19.3100 0.0000 0.0000 0.0000 -10.8324 -5.5227 1.9202 113.7407 -84.9893 -159.4738 2.2615 -81.9395 14.0901 6.8670 -6.0995 -0.5954 0.0000 0.0000 0.0000 -4.8740 -0.6959 0.1214 -45.2438 51.0258 -79.3673 -3.5421 22.9394 39.0683 -5.5794 4.9776 -0.4622 0.0000 0.0000 0.0000 5.1006 7.1685 -32.4457 -13.2351 -35.8804 18.8280 -2.0310 0.5579 11.1435 0.0000 0.0000 -0.0000
-46.6270 39.1430 2.1252 -144.3110 -80.1344 148.8000 0.0000 0.0000 0.0000 -7.8409 8.9272 5.7649 8.4563 20.6135 23.1813 6.5738 -0.0029 -8.5807 -0.0000 -0.0000 0.0000 0.0000 0.0000 0.0000 31.0763 11.4560 11.9546 -28.4439 20.6548 5.8438 0.0000 0.0000 0.0000 8.9071 -23.1207 -19.0291 0.0000 0.0000 0.0000 -9.6638 -4.5735 1.6400 123.1430 -85.8029 -167.5878 2.1394 -83.0571 13.0084 5.9111 -5.7953 -0.4945 0.0000 0.0000 0.0000 -6.5952 -0.4487 0.0735 -58.9826 48.5138 -79.8981 1.4428 -4.4025 38.9202 -0.2280 2.8041 0.0096 0.0000 0.0000 0.0000 3.7794 8.5066 -32.3783 -14.4179 -37.0583 20.2950 -0.9217 0.3364 10.9111 0.0000 0.0000 -0.0000
-47.0834 39.1684 1.9521 -126.7340 -81.9445 131.8290 0.0000 0.0000 0.0000 -6.7437 8.2930 5.6494 9.5961 21.6208 24.5952 5.9284 -0.1367 -6.3985 -0.0000 -0.0000 0.0000 0.0000 0.0000 0.0000 28.3098 11.5020 9.1585 -24.8216 19.4035 7.6858 0.0000 0.0000 0.0000 11.5344 -22.3001 -22.3189 0.0000 0.0000 0.0000 -9.5542 -4.3832 1.5969 93.1878 -85.8150 -136.2788 2.5010 -85.1413 11.8819 5.0570 -5.0602 -0.3891 0.0000 0.0000 0.0000 -6.4847 -0.0313 0.0942 -54.9973 46.6335 -76.4251 1.0759 -0.1349 39.6211 -0.0308 4.0579 0.0109 0.0000 0.0000 0.0000 3.6177 7.5627 -33.5077 -16.2895 -38.7056 22.5846 -0.2031 0.1915 10.4850 0.0000 0.0000 -0.0000
-47.4739 39.1741 1.7684 -107.1530 -82.2591 112.0640 0.0000 0.0000 0.0000 -4.4575 7.7607 5.6060 10.4456 20.9909 27.0454 6.3033 -0.3270 -3.9493 -0.0000 -0.0000 0.0000 0.0000 0.0000 0.0000 22.0695 11.0019 5.4882 -16.0953 16.1842 10.2607 0.0000 0.0000 0.0000 13.0660 -19.1346 -24.5713 0.0000 0.0000 0.0000 -10.2895 -4.7552 1.7259 51.3576 -84.2861 -94.1797 3.5957 -86.7331 10.3317 4.6164 -4.8716 -0.3456 0.0000 0.0000 0.0000 -4.7491 0.4377 0.1866 -41.9373 46.5770 -75.2233 -1.5208 23.2692 44.0500 -1.4613 6.4121 -0.0917 0.0000 0.0000 0.0000 4.8303 5.9265 -33.9868 -17.8605 -39.0759 25.1258 0.1548 0.1106 9.4740 0.0000 0.0000 -0.0000
-47.7590 39.2506 1.7233 -108.2050 -81.2110 112.0410 0.0000 0.0000 0.0000 -3.2126 8.4314 5.5026 11.3684 20.6566 29.2842 7.2410 -0.6134 -1.0827 -0.0000 -0.0000 0.0000 0.0000 0.0000 0.0000 16.8477 9.9666 4.1097 -9.6791 13.3038 11.3433 0.0000 0.0000 0.0000 12.5827 -15.5632 -23.9288 0.0000 0.0000 0.0000 -11.2724 -4.6360 1.7831 28.8908 -81.3954 -71.7362 3.4751 -86.8769 10.1948 4.1404 -5.3159 -0.3193 0.0000 0.0000 0.0000 -2.3359 1.0453 0.3364 -28.9651 48.6021 -71.6304 -2.1384 46.9897 42.0903 -0.0454 6.9243 0.0402 0.0000 0.0000 0.0000 6.5455 5.0375 -32.7591 -17.6135 -37.3174 26.0717 0.6036 0.0196 8.2808 0.0000 0.0000 -0.0000
-47.9923 39.4120 1.8022 -126.1820 -79.5232 129.2900 0.0000 0.0000 0.0000 -3.8906 10.0757 4.5809 12.2246 20.8217 30.7599 7.9496 -0.8843 1.3820 -0.0000 -0.0000 0.0000 0.0000 0.0000 0.0000 13.8348 9.1232 3.4513 -7.5976 11.8672 11.7915 0.0000 0.0000 0.0000 11.6774 -12.3895 -22.3618 0.0000 0.0000 0.0000 -12.0406 -4.0664 1.7315 18.6617 -78.0769 -61.1638 3.2555 -86.6806 10.2938 3.6111 -5.4159 -0.2774 0.0000 0.0000 0.0000 -0.0200 1.8083 0.5212 -15.9622 51.4960 -64.1069 -2.9874 61.5509 35.8962 1.3823 7.3498 0.1935 0.0000 0.0000 0.0000 7.4953 5.5262 -30.8279 -15.8948 -34.8156 25.1460 0.9722 -0.0480 7.4551 0.0000 0.0000 -0.0000
-48.1862 39.5779 1.9215 -142.8480 -76.8544 146.0880 0.0000 0.0000 0.0000 -5.3396 11.6059 2.9278 12.4010 20.5615 31.4186 8.1648 -1.0366 2.8366 -0.0000 -0.0000 0.0000 0.0000 0.0000 0.0000 11.0745 8.7314 1.7277 -6.0157 10.9175 12.5541 0.0000 0.0000 0.0000 10.8344 -9.7224 -21.3366 0.0000 0.0000 0.0000 -12.8306 -3.8916 1.7569 11.9909 -74.4679 -54.1255 3.9576 -87.5903 9.3391 3.6433 -4.7214 -0.2616 0.0000 0.0000 0.0000 2.0533 2.3579 0.6974 -0.6477 52.9063 -53.9541 -2.6652 75.0009 29.9643 1.5567 7.5952 0.2153 0.0000 0.0000 0.0000 7.7302 6.8921 -29.4827 -14.0582 -32.6444 23.7092 0.8612 -0.0342 6.8894 0.0000 0.0000 -0.0000
-48.2915 39.6829 2.0599 -151.5230 -73.7040 155.0620 0.0000 0.0000 0.0000 -6.2139 12.0363 1.5870 11.4343 19.1727 31.2866 8.3058 -1.1104 3.4622 -0.0000 -0.0000 0.0000 0.0000 0.0000 0.0000 8.1546 8.3808 -0.3368 -2.8567 9.5545 13.4949 0.0000 0.0000 0.0000 9.2344 -7.4383 -20.9048 0.0000 0.0000 0.0000 -13.7852 -4.1066 1.8764 7.7361 -70.8667 -50.0333 9.7693 -89.1843 2.9277 4.3146 -3.8374 -0.2888 0.0000 0.0000 0.0000 3.8624 2.4466 0.8175 13.5044 52.6504 -42.8991 -14.1916 87.7131 12.1612 1.0363 6.9895 0.1524 0.0000 0.0000 0.0000 8.1425 8.1053 -28.6426 -12.5608 -30.5211 22.7149 0.6128 -0.0014 6.2223 0.0000 0.0000 -0.0000
-48.2717 39.7321 2.2206 -156.1610 -70.5116 159.5080 0.0000 0.0000 0.0000 -6.5686 11.1430 1.1388 9.6033 16.9016 30.5395 8.3550 -1.0971 3.2554 -0.0000 -0.0000 0.0000 0.0000 0.0000 0.0000 6.2659 7.7514 -1.4109 -0.0121 8.0703 14.2322 0.0000 0.0000 0.0000 7.1802 -5.1863 -20.9061 0.0000 0.0000 0.0000 -14.2218 -3.9783 1.8817 6.3320 -67.9502 -49.5150 92.7590 -89.8788 -80.6120 4.8414 -3.3890 -0.3121 0.0000 0.0000 0.0000 5.1113 2.2697 0.8697 24.4936 52.2004 -33.3146 -174.7610 83.9020 -153.9141 -0.0641 6.6554 0.0380 0.0000 0.0000 0.0000 8.8657 8.8381 -27.5641 -11.1714 -28.1886 22.0347 0.6626 -0.0144 5.5512 0.0000 0.0000 -0.0000
-48.1273 39.7473 2.3624 -160.6090 -67.0343 163.4840 0.0000 0.0000 0.0000 -7.1189 9.7785 0.9989 7.4874 14.2754 29.5461 7.8071 -0.9101 1.8348 -0.0000 -0.0000 0.0000 0.0000 0.0000 0.0000 5.2924 7.0978 -1.8800 1.1905 7.0596 14.8943 0.0000 0.0000 0.0000 5.9228 -2.7047 -20.8759 0.0000 0.0000 0.0000 -14.0144 -3.4985 1.7603 6.3475 -65.7689 -50.6146 18.3409 -89.6322 -6.2353 4.8695 -3.2536 -0.3090 0.0000 0.0000 0.0000 5.5090 2.1987 0.8835 33.2065 52.2522 -25.5649 -178.6240 80.0454 -163.3733 -1.3292 7.0303 -0.0872 0.0000 0.0000 0.0000 9.3487 9.7517 -26.2744 -9.8708 -26.0365 21.2881 0.5132 0.0033 5.1900 0.0000 0.0000 -0.0000
